PathFileType	4	(X/Y/Z)	/Users/visionmauri/Downloads/Videos/OAW13-top_Sports2D/OAW13-top_Sports2D_px_person00.trc
DataRate	CameraRate	NumFrames	NumMarkers	Units	OrigDataRate	OrigDataStartFrame	OrigNumFrames
27.0	27.0	12	22	m	27.0	1482	1977
Frame#	Time	Hip			RHip			RKnee			RAnkle			RBigToe			RSmallToe			RHeel			LHip			LKnee			LAnkle			LBigToe			LSmallToe			LHeel			Neck			Head			Nose			RShoulder			RElbow			RWrist			LShoulder			LElbow			LWrist			
		X1	Y1	Z1	X2	Y2	Z2	X3	Y3	Z3	X4	Y4	Z4	X5	Y5	Z5	X6	Y6	Z6	X7	Y7	Z7	X8	Y8	Z8	X9	Y9	Z9	X10	Y10	Z10	X11	Y11	Z11	X12	Y12	Z12	X13	Y13	Z13	X14	Y14	Z14	X15	Y15	Z15	X16	Y16	Z16	X17	Y17	Z17	X18	Y18	Z18	X19	Y19	Z19	X20	Y20	Z20	X21	Y21	Z21	X22	Y22	Z22
1482	54.91666666666667	515.7762126902628	718.7434926297043	0.0	505.1620019747993	721.28348848066	0.0	501.0414083839451	768.2283533285848	0.0	503.85590806332004	814.3217613686069	0.0	494.561615901089	828.7128947228989	0.0	490.4095424854078	826.2877491292089	0.0	508.0602119137378	822.6121342763379	0.0	527.2456438948368	721.4238250306844	0.0	520.9036736123525	764.8304270411078	0.0	531.4601349417635	813.1770161107205	0.0	514.7054366708985	827.0394100240208	0.0	521.3749893849044	828.079797513041	0.0	537.3915039565991	820.9148006765652	0.0	517.1988338963772	647.0394423980456	0.0	515.4968768629685	617.2692196557516	0.0	512.5195841657091	640.9506192548168	0.0	499.023102201393	654.6384237588746	0.0	492.6803483412056	690.4976168627628	0.0	488.3491782177649	722.5359448185317	0.0	538.2921189703366	655.0215461322693	0.0	543.3061056103032	694.869453284606	0.0	544.0440111446038	730.0054274021401	0.0
1483	54.953722447143505	515.8430045608789	718.5039516289604	0.0	505.1449752313069	720.9710632304393	0.0	500.921151495531	768.2496038912377	0.0	503.82575850877527	814.4652821717644	0.0	494.6359423075129	828.6646200616217	0.0	490.27548535807506	826.3714608020961	0.0	507.7986778656521	822.6408037989579	0.0	527.4255527339335	721.0856875608023	0.0	521.1682301488452	765.1600969602155	0.0	530.639294789396	813.2117119837413	0.0	515.047253290897	827.3113495604922	0.0	521.8563033907528	828.2839429128645	0.0	536.1267937709937	821.1708501050437	0.0	517.40396612828	647.5381823784974	0.0	515.530303348323	617.9482740641405	0.0	512.9096367271951	641.6420557451129	0.0	498.35094810244186	655.0081274999418	0.0	491.3918402412	690.7711348805095	0.0	486.71355280015376	722.6995211688218	0.0	538.6290065223873	655.0080796860531	0.0	543.9755619978881	694.8282765397862	0.0	545.3587152047126	730.046797768438	0.0
1484	54.99077822762034	515.9691273218746	718.3806352204415	0.0	505.07736613633085	720.5952457939412	0.0	500.83076796913616	768.3675301794764	0.0	503.763709492099	814.7080143851473	0.0	494.689263746434	828.6697523199185	0.0	490.1300985623327	826.3641288301299	0.0	507.5558041618019	822.5246280382306	0.0	527.8518678728078	720.7969528518898	0.0	521.4943927736804	765.317221111035	0.0	529.5914719235226	813.4745083010872	0.0	515.956035434174	827.1533402525755	0.0	523.0356171493614	828.288143159395	0.0	534.5752496613884	821.7153578642093	0.0	517.5393655614914	647.6775194853201	0.0	515.5237847458524	618.5452964122811	0.0	513.5124079706407	642.5344366993047	0.0	498.0010245270131	654.8341706080739	0.0	490.12045482560643	690.2893796736764	0.0	485.186641370227	722.2101109700468	0.0	538.816089065621	654.9422946448931	0.0	544.7651542218391	694.8995638755359	0.0	546.6628892435841	730.2363381994606	0.0
1485	55.02783400809717	515.9403723345242	718.4910234825923	0.0	504.9730084016564	720.4992188436122	0.0	500.82029155906906	768.722502088002	0.0	503.6869278131792	814.8710829464812	0.0	494.7616290055031	828.748978436706	0.0	490.17257627254514	826.346106518894	0.0	507.30471706752695	822.4413234316752	0.0	528.1360255513437	720.7962118472544	0.0	522.0887643230209	765.548444101622	0.0	528.3652954244004	814.0471548734089	0.0	517.0323017661211	826.9685444848435	0.0	524.1709738410691	828.2175266809079	0.0	532.656890714787	822.2184175472447	0.0	517.3378421971915	647.6209662009715	0.0	515.6545411842147	618.9407654399639	0.0	514.0366835523438	643.3956332910752	0.0	497.7089465602329	654.5369950876919	0.0	488.8700529103739	689.4708330182282	0.0	483.77746609768786	721.6799352481903	0.0	538.9058752488113	654.9842492016155	0.0	545.5653868574808	695.0852373531002	0.0	547.7800179356968	730.6308791017605	0.0
1486	55.064889788574	516.0597162474302	718.776072392141	0.0	504.8798227947491	720.8384046472964	0.0	500.8161588103232	769.0800791192851	0.0	503.5911195787514	814.8811487621323	0.0	494.7879835459832	828.7843939992753	0.0	490.3032900168229	826.3891346248105	0.0	507.29182678238556	822.5396782894218	0.0	528.4570320785585	721.1542696375229	0.0	523.2455835711102	765.930479661598	0.0	527.5075012851373	814.7354278880849	0.0	518.0131249433465	827.2409632991213	0.0	525.1344874586526	828.3132720945677	0.0	531.0223398026128	822.7094784777906	0.0	517.1561557917562	647.8731876889312	0.0	515.9071830631082	619.0614341689469	0.0	514.4091563278361	643.8581194903444	0.0	497.27041077486643	654.5620055140639	0.0	487.78906284432344	688.9707693407785	0.0	482.48668839992257	721.453436183894	0.0	539.1223175077009	655.1989807765734	0.0	546.1688524250025	695.0789808459662	0.0	548.9167408903398	730.7954297984201	0.0
1487	55.101945569050834	516.6507962032089	719.0125273025197	0.0	504.80901604043254	721.252677613771	0.0	500.82922116590487	769.2390704497382	0.0	503.5484799571213	814.7628471344642	0.0	494.69862530474836	828.7789404159295	0.0	490.3342293939454	826.4036346395586	0.0	507.63027282910286	822.7835004436092	0.0	529.1652375603046	721.5008248135109	0.0	524.8146589412607	766.3020525417056	0.0	527.3169556365026	815.3231662901354	0.0	518.8137421236395	828.1673672707104	0.0	526.1833338523389	828.8129906003127	0.0	530.1649022999106	823.3601545347651	0.0	517.2833443967787	648.3987262177892	0.0	515.9852019009749	618.5785963997273	0.0	514.6957500609196	643.6324751654262	0.0	496.8529894185521	654.7084220419824	0.0	486.8698228779958	688.886398700826	0.0	481.4167779146482	721.4349237605476	0.0	539.4378596962927	655.3697488304007	0.0	546.5968353799939	694.5327380011882	0.0	550.2395108505027	730.1449918326042	0.0
1488	55.13900134952767	517.2781032628072	719.1045672858213	0.0	504.83820889962317	721.4183062446753	0.0	501.16972764916113	769.5880197154137	0.0	503.6921237815455	814.6734374501225	0.0	494.635802182255	828.7195548209312	0.0	490.3629551215618	826.2881812774954	0.0	508.088123618471	822.9960511716372	0.0	529.7747219436602	721.5727156684494	0.0	526.3717961122727	767.2141891003146	0.0	527.3891382340086	816.1216530068108	0.0	519.6129403720595	829.5614273591684	0.0	527.3245122148825	829.9541995772659	0.0	529.3562685654083	824.149010605136	0.0	517.4311838312018	648.7991574808932	0.0	515.8037753194612	617.4573194948757	0.0	514.8771261132803	643.2407702704177	0.0	496.5864016114982	654.7345352811766	0.0	486.0137788529313	688.9210610333324	0.0	480.56636248471045	721.4914543792975	0.0	539.8130243489394	655.4345705740903	0.0	547.2253535111436	693.7624607318788	0.0	551.7132452895053	729.1161863730177	0.0
1489	55.1760571300045	517.5332827453346	719.1670952301816	0.0	505.14871265848495	721.4027439664386	0.0	501.89554915448576	770.3077777975075	0.0	503.9658048234667	814.897862989404	0.0	494.6428499468504	828.5446040484993	0.0	490.5315962466052	826.109994094914	0.0	508.3872300587789	823.1032621312715	0.0	529.8677997375006	721.4808358531284	0.0	527.5678966011664	768.9204760948329	0.0	527.4320037388331	817.3592386048217	0.0	520.5616383611385	831.0142263642132	0.0	528.3528225392176	831.4809317279731	0.0	528.165544786557	824.8855639586637	0.0	517.4183887644828	649.1006020229145	0.0	515.8174711016386	616.636926131407	0.0	514.9876788418984	643.5232914172318	0.0	496.5214701285758	654.8622443444708	0.0	485.3773885773491	688.922446845095	0.0	479.838273619615	721.5703304287026	0.0	540.2875216481818	655.5674146213042	0.0	548.2368540634841	693.3646630911297	0.0	553.2052691559021	728.4152125454472	0.0
1490	55.213112910481335	517.7859426144388	719.1851035889077	0.0	505.7832834568309	721.1828799544938	0.0	502.41540414547967	770.8345625073938	0.0	504.148399037776	815.3742987344185	0.0	494.4975917168315	828.3614526166721	0.0	490.6824348574394	826.024421951801	0.0	508.49388354026934	823.1809104243638	0.0	530.0369943696462	721.1663985128497	0.0	528.3835494377223	770.3233588550424	0.0	527.6950383945059	818.3378055623671	0.0	521.4139517063181	832.1811145907969	0.0	529.0684656222948	832.6267835937813	0.0	527.5124889971901	825.3837368731383	0.0	517.7404624087511	649.6642593049266	0.0	516.4873157662896	616.7475565681381	0.0	515.4214648132765	644.363559985937	0.0	496.88633272466706	655.1728364060108	0.0	485.19476902744196	688.8816564934077	0.0	479.2536372616963	721.3948894836195	0.0	540.8361367951027	655.7716253453723	0.0	549.4417066908379	693.358200588255	0.0	554.7017460787741	728.0255571218914	0.0
1491	55.25016869095817	518.3355402031209	719.1214471499051	0.0	506.48760695866025	720.8324421359921	0.0	502.4236167465069	770.9248650813547	0.0	504.1600846177798	815.655812357881	0.0	494.2719446885014	828.3132155224101	0.0	490.7295040292661	826.0576913876273	0.0	508.5271958359684	823.2551068190528	0.0	530.8322584351746	720.6845035857825	0.0	529.0878219220897	770.6754512767615	0.0	528.2217350626338	818.357225498833	0.0	521.8464394986647	833.0343796396746	0.0	529.3651970033552	833.1353537089595	0.0	527.9124243978265	825.5075001115225	0.0	518.7494220688781	650.4273493556227	0.0	517.6774019439237	616.9151675802686	0.0	516.4531501861519	644.9133047063457	0.0	497.6063025058452	655.3353815491618	0.0	485.3257149682705	688.8168611102266	0.0	478.8997122884212	720.9324359474323	0.0	541.526734478296	655.943043407678	0.0	550.7431039663933	693.446825307498	0.0	556.2783573163564	727.7766371596683	0.0
1492	55.287224471435	518.9510292893573	719.2265444708527	0.0	506.9948382748554	720.9409138303355	0.0	502.43596555339093	770.9245983574647	0.0	504.1678721280031	815.5889342656602	0.0	494.2694566207676	828.2976335705272	0.0	490.8089686876014	825.9965426650546	0.0	508.53832991600416	823.3210613778372	0.0	531.9035807525895	720.7268302137281	0.0	529.7691251338166	770.4773212488207	0.0	528.6257381342208	817.9006804356594	0.0	521.9159426354286	833.7051709883924	0.0	529.3364247832858	833.4457931969338	0.0	528.590130114515	825.3705086650816	0.0	519.9542117181799	650.8516850236462	0.0	518.9269177818626	617.0142417326729	0.0	517.7320343497281	645.024041589828	0.0	498.2715306874392	655.4172124452989	0.0	485.50820689290657	688.7781721377672	0.0	478.7854692913685	720.6238303382943	0.0	542.4928979463789	656.194118709951	0.0	552.1830281992394	693.5185425358175	0.0	557.8269629623899	727.6897388173244	0.0
1493	55.32428025191184	519.5370284634074	719.6940026680045	0.0	507.37572500147104	721.7033127767954	0.0	502.82865602383436	770.9757302777136	0.0	504.35920825628506	815.4892741594412	0.0	494.43439971159785	828.2250117226097	0.0	490.8959567269497	825.7409756713123	0.0	508.54295554612634	823.4441746027891	0.0	532.7858554497382	721.5616768572717	0.0	530.2356589351981	770.295426288472	0.0	528.7458700153506	817.8883274642658	0.0	521.9864223511466	834.2167280912166	0.0	529.2834321101216	833.8549822502961	0.0	528.9065909775474	825.3168818061741	0.0	520.8234315473383	650.8388990206864	0.0	520.1318627460735	618.2043817804561	0.0	518.9413156560396	645.3885387145347	0.0	498.95177705346697	655.834010439078	0.0	485.7673823486061	688.7457439462289	0.0	478.8543385239826	720.5630646867104	0.0	543.648186336814	656.6935315311899	0.0	553.5813925735864	693.4445126237914	0.0	559.2477139640234	727.6643178805989	0.0
